<svg width="60" height="60" viewBox="0 0 60 60" fill="none" xmlns="http://www.w3.org/2000/svg">
<mask id="mask0_13_1527" style="mask-type:luminance" maskUnits="userSpaceOnUse" x="0" y="0" width="60" height="60">
<path d="M0 3.8147e-06H60V60H0V3.8147e-06Z" fill="white"/>
</mask>
<g mask="url(#mask0_13_1527)">
<path fill-rule="evenodd" clip-rule="evenodd" d="M4.57764e-05 50.203C4.57764e-05 52.8853 2.17706 55.0569 4.85899 55.0569H43.1468C45.8289 55.0569 48.0059 52.8853 48.0059 50.203V36.5622C48.0059 35.915 47.4812 35.3904 46.834 35.3904C46.1868 35.3904 45.6622 35.915 45.6622 36.5622V50.203C45.6622 51.5878 44.5376 52.7131 43.1468 52.7131H4.85899C3.46842 52.7131 2.3438 51.5878 2.3438 50.203V23.9294C2.3438 22.5446 3.46842 21.4193 4.85899 21.4193H37.7123C38.3595 21.4193 38.8842 20.8946 38.8842 20.2474C38.8842 19.6002 38.3595 19.0755 37.7123 19.0755H4.85899C2.17706 19.0755 4.57764e-05 21.2471 4.57764e-05 23.9294V50.203Z" fill="#072B45"/>
<path fill-rule="evenodd" clip-rule="evenodd" d="M17.1692 25.7687C17.1692 26.4159 17.6938 26.9406 18.341 26.9406H29.6649C30.3121 26.9406 30.8368 26.4159 30.8368 25.7687C30.8368 25.1215 30.3121 24.5968 29.6649 24.5968H18.341C17.6938 24.5968 17.1692 25.1215 17.1692 25.7687Z" fill="#072B45"/>
<path fill-rule="evenodd" clip-rule="evenodd" d="M19.3147 29.9875C19.3147 30.6348 19.8394 31.1594 20.4866 31.1594H27.5102C28.1574 31.1594 28.6821 30.6348 28.6821 29.9875C28.6821 29.3403 28.1574 28.8157 27.5102 28.8157H20.4866C19.8394 28.8157 19.3147 29.3403 19.3147 29.9875Z" fill="#072B45"/>
<path fill-rule="evenodd" clip-rule="evenodd" d="M20.8218 38.602L3.06073 21.5537C2.59381 21.1055 1.85198 21.1207 1.4038 21.5876C0.955616 22.0545 0.970805 22.7964 1.43772 23.2445L19.2133 40.3068C19.2225 40.3156 19.2318 40.3242 19.2412 40.3327C20.5482 41.5081 22.2446 42.1584 24.003 42.1584C25.7613 42.1584 27.4578 41.5081 28.7647 40.3327C28.7742 40.3242 28.7835 40.3156 28.7926 40.3068L36.3119 33.0892C36.7788 32.641 36.794 31.8992 36.3458 31.4323C35.8976 30.9654 35.1558 30.9502 34.6888 31.3984L27.1841 38.602C26.3095 39.3827 25.177 39.8147 24.003 39.8147C22.829 39.8147 21.6965 39.3827 20.8218 38.602Z" fill="#072B45"/>
<path fill-rule="evenodd" clip-rule="evenodd" d="M46.6946 53.1402C47.0827 52.6222 46.9773 51.8877 46.4594 51.4997L29.0596 38.4642C28.5416 38.0762 27.8072 38.1815 27.4191 38.6995C27.031 39.2174 27.1364 39.9519 27.6543 40.34L45.0541 53.3754C45.5721 53.7635 46.3066 53.6582 46.6946 53.1402Z" fill="#072B45"/>
<path fill-rule="evenodd" clip-rule="evenodd" d="M1.31174 53.1406C1.70008 53.6583 2.43462 53.7633 2.95237 53.3749L20.4202 40.2734C20.938 39.885 21.0429 39.1505 20.6546 38.6327C20.2662 38.115 19.5317 38.01 19.0139 38.3984L1.54608 51.4999C1.02832 51.8883 0.923405 52.6228 1.31174 53.1406Z" fill="#072B45"/>
<path fill-rule="evenodd" clip-rule="evenodd" d="M33.668 30.401C33.668 32.3439 35.2431 33.9187 37.1859 33.9187H56.4822C58.4249 33.9187 60 32.3439 60 30.401C60 28.4581 58.4249 26.8832 56.4822 26.8832H37.1859C35.2431 26.8832 33.668 28.4581 33.668 30.401ZM37.1859 31.575C36.5374 31.575 36.0118 31.0493 36.0118 30.401C36.0118 29.7526 36.5374 29.227 37.1859 29.227H56.4822C57.1307 29.227 57.6563 29.7526 57.6563 30.401C57.6563 31.0493 57.1307 31.575 56.4822 31.575H37.1859Z" fill="#072B45"/>
<path fill-rule="evenodd" clip-rule="evenodd" d="M36.8397 28.0551C36.8397 28.7023 37.3644 29.2269 38.0116 29.2269H55.6565C56.3037 29.2269 56.8284 28.7023 56.8284 28.0551V18.4506C56.8284 12.9348 52.3526 8.46529 46.834 8.46529C41.3154 8.46529 36.8397 12.9348 36.8397 18.4506V28.0551ZM39.1834 26.8832V18.4506C39.1834 14.2314 42.6076 10.809 46.834 10.809C51.0605 10.809 54.4846 14.2314 54.4846 18.4506V26.8832H39.1834Z" fill="#072B45"/>
<path fill-rule="evenodd" clip-rule="evenodd" d="M45.6077 10.735C46.1363 10.3616 46.2621 9.63034 45.8887 9.10172C45.7565 8.91455 45.6791 8.68768 45.6791 8.43934C45.6791 7.80407 46.195 7.28692 46.834 7.28692C47.4731 7.28692 47.989 7.80411 47.989 8.43934C47.989 8.67939 47.9167 8.89902 47.7927 9.08228C47.4301 9.61833 47.5706 10.3469 48.1067 10.7096C48.6427 11.0722 49.3713 10.9317 49.734 10.3956C50.112 9.83685 50.3327 9.16211 50.3327 8.43934C50.3327 6.50723 48.765 4.94317 46.834 4.94317C44.903 4.94317 43.3353 6.50727 43.3353 8.43934C43.3353 9.1878 43.572 9.88437 43.9744 10.454C44.3478 10.9826 45.0791 11.1084 45.6077 10.735Z" fill="#072B45"/>
<path fill-rule="evenodd" clip-rule="evenodd" d="M42.9362 33.5328C42.9362 35.6844 44.6804 37.4288 46.8321 37.4288H46.836C48.9877 37.4288 50.7319 35.6844 50.7319 33.5328V32.7468C50.7319 32.0996 50.2072 31.575 49.56 31.575H44.1081C43.4609 31.575 42.9362 32.0996 42.9362 32.7468V33.5328ZM45.3283 33.9187H48.3398C48.1682 34.5893 47.5599 35.0851 46.836 35.0851H46.8321C46.1081 35.0851 45.4999 34.5893 45.3283 33.9187Z" fill="#072B45"/>
</g>
</svg>
