<svg width="60" height="60" viewBox="0 0 60 60" fill="none" xmlns="http://www.w3.org/2000/svg">
<g clip-path="url(#clip0_13_1498)">
<path fill-rule="evenodd" clip-rule="evenodd" d="M1.82578 1.75781C1.78853 1.75781 1.75781 1.78853 1.75781 1.82578V3.71953C1.75781 3.75866 1.78924 3.78867 1.82578 3.78867H58.1742C58.2108 3.78867 58.2422 3.75866 58.2422 3.71953V1.82578C58.2422 1.78853 58.2115 1.75781 58.1742 1.75781H48.7781C48.2927 1.75781 47.8992 1.36431 47.8992 0.878906C47.8992 0.3935 48.2927 0 48.7781 0H58.1742C59.1823 0 60 0.81772 60 1.82578V3.71953C60 4.72806 59.183 5.54648 58.1742 5.54648H1.82578C0.81701 5.54648 0 4.72806 0 3.71953V1.82578C0 0.817719 0.817718 0 1.82578 0H44.6766C45.162 0 45.5555 0.3935 45.5555 0.878906C45.5555 1.36431 45.162 1.75781 44.6766 1.75781H1.82578Z" fill="#072B45"/>
<path fill-rule="evenodd" clip-rule="evenodd" d="M0 44.2055C0 43.1974 0.81772 42.3797 1.82578 42.3797H58.1742C59.1823 42.3797 60 43.1974 60 44.2055V46.0992C60 47.1092 59.1816 47.925 58.1742 47.925H14.768C14.2826 47.925 13.8891 47.5315 13.8891 47.0461C13.8891 46.5607 14.2826 46.1672 14.768 46.1672H58.1742C58.2122 46.1672 58.2422 46.1369 58.2422 46.0992V44.2055C58.2422 44.1682 58.2115 44.1375 58.1742 44.1375H1.82578C1.78853 44.1375 1.75781 44.1682 1.75781 44.2055V46.0992C1.75781 46.1369 1.78782 46.1672 1.82578 46.1672H10.6664C11.1518 46.1672 11.5453 46.5607 11.5453 47.0461C11.5453 47.5315 11.1518 47.925 10.6664 47.925H1.82578C0.818429 47.925 0 47.1092 0 46.0992V44.2055Z" fill="#072B45"/>
<path fill-rule="evenodd" clip-rule="evenodd" d="M2.77266 3.7887C3.25806 3.7887 3.65156 4.1822 3.65156 4.6676V27.3106C3.65156 27.796 3.25806 28.1895 2.77266 28.1895C2.28725 28.1895 1.89375 27.796 1.89375 27.3106V4.6676C1.89375 4.1822 2.28725 3.7887 2.77266 3.7887Z" fill="#072B45"/>
<path fill-rule="evenodd" clip-rule="evenodd" d="M2.77266 30.5332C3.25806 30.5332 3.65156 30.9267 3.65156 31.4121V43.2586C3.65156 43.744 3.25806 44.1375 2.77266 44.1375C2.28725 44.1375 1.89375 43.744 1.89375 43.2586V31.4121C1.89375 30.9267 2.28725 30.5332 2.77266 30.5332Z" fill="#072B45"/>
<path fill-rule="evenodd" clip-rule="evenodd" d="M57.227 3.78809C57.7124 3.78809 58.1059 4.18159 58.1059 4.66699V43.2584C58.1059 43.7438 57.7124 44.1373 57.227 44.1373C56.7416 44.1373 56.3481 43.7438 56.3481 43.2584V4.66699C56.3481 4.18159 56.7416 3.78809 57.227 3.78809Z" fill="#072B45"/>
<path fill-rule="evenodd" clip-rule="evenodd" d="M30 55.2649C29.1779 55.2649 28.5114 55.9314 28.5114 56.7535C28.5114 57.5757 29.1779 58.2422 30 58.2422C30.8222 58.2422 31.4886 57.5757 31.4886 56.7535C31.4886 55.9314 30.8222 55.2649 30 55.2649ZM26.7536 56.7535C26.7536 54.9606 28.207 53.5071 30 53.5071C31.793 53.5071 33.2464 54.9606 33.2464 56.7535C33.2464 58.5465 31.793 60 30 60C28.207 60 26.7536 58.5465 26.7536 56.7535Z" fill="#072B45"/>
<path fill-rule="evenodd" clip-rule="evenodd" d="M30 46.1675C30.4854 46.1675 30.8789 46.561 30.8789 47.0464V54.386C30.8789 54.8714 30.4854 55.2649 30 55.2649C29.5146 55.2649 29.1211 54.8714 29.1211 54.386V47.0464C29.1211 46.561 29.5146 46.1675 30 46.1675Z" fill="#072B45"/>
<path fill-rule="evenodd" clip-rule="evenodd" d="M30 15.3713C25.2551 15.3713 21.4086 19.2178 21.4086 23.9627C21.4086 28.7076 25.2551 32.5541 30 32.5541C34.7449 32.5541 38.5914 28.7076 38.5914 23.9627C38.5914 19.2178 34.7449 15.3713 30 15.3713ZM19.6508 23.9627C19.6508 18.247 24.2843 13.6135 30 13.6135C35.7157 13.6135 40.3492 18.247 40.3492 23.9627C40.3492 29.6784 35.7157 34.3119 30 34.3119C24.2843 34.3119 19.6508 29.6784 19.6508 23.9627Z" fill="#072B45"/>
<path fill-rule="evenodd" clip-rule="evenodd" d="M30 13.6135C30.4854 13.6135 30.8789 14.007 30.8789 14.4924V23.0838H39.4703C39.9557 23.0838 40.3492 23.4773 40.3492 23.9627C40.3492 24.4481 39.9557 24.8416 39.4703 24.8416H30C29.5146 24.8416 29.1211 24.4481 29.1211 23.9627V14.4924C29.1211 14.007 29.5146 13.6135 30 13.6135Z" fill="#072B45"/>
<path fill-rule="evenodd" clip-rule="evenodd" d="M30.6215 23.3412C30.9647 23.6845 30.9647 24.241 30.6215 24.5842L23.925 31.2806C23.5818 31.6239 23.0253 31.6239 22.6821 31.2806C22.3388 30.9374 22.3388 30.3809 22.6821 30.0377L29.3785 23.3412C29.7218 22.998 30.2782 22.998 30.6215 23.3412Z" fill="#072B45"/>
<path fill-rule="evenodd" clip-rule="evenodd" d="M38.7691 15.1731C38.9339 15.0083 39.1575 14.9156 39.3906 14.9156H48.7985C49.2839 14.9156 49.6774 15.3091 49.6774 15.7946C49.6774 16.28 49.2839 16.6735 48.7985 16.6735H39.7546L35.5347 20.8935C35.1915 21.2368 34.635 21.2368 34.2917 20.8935C33.9485 20.5503 33.9485 19.9938 34.2917 19.6506L38.7691 15.1731Z" fill="#072B45"/>
<path fill-rule="evenodd" clip-rule="evenodd" d="M38.5117 8.45508C38.5117 7.96967 38.9052 7.57617 39.3906 7.57617H48.7985C49.2839 7.57617 49.6774 7.96967 49.6774 8.45508C49.6774 8.94048 49.2839 9.33398 48.7985 9.33398H39.3906C38.9052 9.33398 38.5117 8.94048 38.5117 8.45508Z" fill="#072B45"/>
<path fill-rule="evenodd" clip-rule="evenodd" d="M38.5117 12.2433C38.5117 11.7579 38.9052 11.3644 39.3906 11.3644H44.0946C44.58 11.3644 44.9735 11.7579 44.9735 12.2433C44.9735 12.7287 44.58 13.1222 44.0946 13.1222H39.3906C38.9052 13.1222 38.5117 12.7287 38.5117 12.2433Z" fill="#072B45"/>
<path fill-rule="evenodd" clip-rule="evenodd" d="M11.8378 31.8941C11.8378 31.4087 12.2313 31.0152 12.7167 31.0152H18.3989C18.8843 31.0152 19.2778 31.4087 19.2778 31.8941C19.2778 32.3795 18.8843 32.773 18.3989 32.773H12.7167C12.2313 32.773 11.8378 32.3795 11.8378 31.8941Z" fill="#072B45"/>
<path fill-rule="evenodd" clip-rule="evenodd" d="M5.68219 31.8941C5.68219 31.4087 6.07569 31.0152 6.56109 31.0152H8.92863C9.41404 31.0152 9.80754 31.4087 9.80754 31.8941C9.80754 32.3795 9.41404 32.773 8.92863 32.773H6.56109C6.07569 32.773 5.68219 32.3795 5.68219 31.8941Z" fill="#072B45"/>
<path fill-rule="evenodd" clip-rule="evenodd" d="M5.68219 35.6822C5.68219 35.1968 6.07569 34.8033 6.56109 34.8033H8.92863C9.41404 34.8033 9.80754 35.1968 9.80754 35.6822C9.80754 36.1676 9.41404 36.5611 8.92863 36.5611H6.56109C6.07569 36.5611 5.68219 36.1676 5.68219 35.6822Z" fill="#072B45"/>
<path fill-rule="evenodd" clip-rule="evenodd" d="M11.8378 35.6822C11.8378 35.1968 12.2313 34.8033 12.7167 34.8033H18.3989C18.8843 34.8033 19.2778 35.1968 19.2778 35.6822C19.2778 36.1676 18.8843 36.5611 18.3989 36.5611H12.7167C12.2313 36.5611 11.8378 36.1676 11.8378 35.6822Z" fill="#072B45"/>
<path fill-rule="evenodd" clip-rule="evenodd" d="M5.68219 39.4703C5.68219 38.9849 6.07569 38.5914 6.56109 38.5914H8.92863C9.41404 38.5914 9.80754 38.9849 9.80754 39.4703C9.80754 39.9557 9.41404 40.3492 8.92863 40.3492H6.56109C6.07569 40.3492 5.68219 39.9557 5.68219 39.4703Z" fill="#072B45"/>
<path fill-rule="evenodd" clip-rule="evenodd" d="M11.8378 39.4703C11.8378 38.9849 12.2313 38.5914 12.7167 38.5914H18.3989C18.8843 38.5914 19.2778 38.9849 19.2778 39.4703C19.2778 39.9557 18.8843 40.3492 18.3989 40.3492H12.7167C12.2313 40.3492 11.8378 39.9557 11.8378 39.4703Z" fill="#072B45"/>
<path fill-rule="evenodd" clip-rule="evenodd" d="M34.2917 27.032C34.635 26.6887 35.1914 26.6887 35.5347 27.032L39.7546 31.2519H48.7985C49.2839 31.2519 49.6774 31.6454 49.6774 32.1308C49.6774 32.6162 49.2839 33.0097 48.7985 33.0097H39.3906C39.1575 33.0097 38.9339 32.9171 38.7691 32.7523L34.2917 28.2749C33.9485 27.9317 33.9485 27.3752 34.2917 27.032Z" fill="#072B45"/>
<path fill-rule="evenodd" clip-rule="evenodd" d="M38.5117 39.4703C38.5117 38.9849 38.9052 38.5914 39.3906 38.5914H44.0946C44.58 38.5914 44.9735 38.9849 44.9735 39.4703C44.9735 39.9557 44.58 40.3492 44.0946 40.3492H39.3906C38.9052 40.3492 38.5117 39.9557 38.5117 39.4703Z" fill="#072B45"/>
<path fill-rule="evenodd" clip-rule="evenodd" d="M38.5117 35.6822C38.5117 35.1968 38.9052 34.8033 39.3906 34.8033H48.7985C49.2839 34.8033 49.6774 35.1968 49.6774 35.6822C49.6774 36.1676 49.2839 36.5611 48.7985 36.5611H39.3906C38.9052 36.5611 38.5117 36.1676 38.5117 35.6822Z" fill="#072B45"/>
<path fill-rule="evenodd" clip-rule="evenodd" d="M10.3226 15.7946C10.3226 15.3091 10.7161 14.9156 11.2015 14.9156H20.6094C20.8425 14.9156 21.0661 15.0083 21.2309 15.1731L25.7083 19.6506C26.0515 19.9938 26.0515 20.5503 25.7083 20.8935C25.365 21.2368 24.8085 21.2368 24.4653 20.8935L20.2454 16.6735H11.2015C10.7161 16.6735 10.3226 16.28 10.3226 15.7946Z" fill="#072B45"/>
<path fill-rule="evenodd" clip-rule="evenodd" d="M10.3226 8.45508C10.3226 7.96967 10.7161 7.57617 11.2015 7.57617H20.6094C21.0948 7.57617 21.4883 7.96967 21.4883 8.45508C21.4883 8.94048 21.0948 9.33398 20.6094 9.33398H11.2015C10.7161 9.33398 10.3226 8.94048 10.3226 8.45508Z" fill="#072B45"/>
<path fill-rule="evenodd" clip-rule="evenodd" d="M10.3226 12.2433C10.3226 11.7579 10.7161 11.3644 11.2015 11.3644H15.9054C16.3908 11.3644 16.7843 11.7579 16.7843 12.2433C16.7843 12.7287 16.3908 13.1222 15.9054 13.1222H11.2015C10.7161 13.1222 10.3226 12.7287 10.3226 12.2433Z" fill="#072B45"/>
</g>
<defs>
<clipPath id="clip0_13_1498">
<rect width="60" height="60" fill="white"/>
</clipPath>
</defs>
</svg>
