<svg width="60" height="60" viewBox="0 0 60 60" fill="none" xmlns="http://www.w3.org/2000/svg">
<g clip-path="url(#clip0_13_1484)">
<path fill-rule="evenodd" clip-rule="evenodd" d="M26.5143 14.0027C20.4337 14.0027 15.2521 17.8627 13.2909 23.2697C13.0702 23.8781 12.398 24.1924 11.7896 23.9718C11.1812 23.7511 10.8669 23.0789 11.0876 22.4705C13.3743 16.1661 19.4162 11.6589 26.5143 11.6589C35.5752 11.6589 42.9205 19.0042 42.9205 28.0651C42.9205 37.126 35.5752 44.4713 26.5143 44.4713C19.4162 44.4713 13.3743 39.9642 11.0876 33.6597C10.8669 33.0513 11.1812 32.3792 11.7896 32.1585C12.398 31.9378 13.0702 32.2521 13.2909 32.8606C15.2521 38.2676 20.4337 42.1276 26.5143 42.1276C34.2807 42.1276 40.5767 35.8316 40.5767 28.0651C40.5767 20.2987 34.2807 14.0027 26.5143 14.0027Z" fill="#072B45"/>
<path fill-rule="evenodd" clip-rule="evenodd" d="M25.0133 18.8111C19.9024 19.6405 16.4316 24.4561 17.2611 29.567C18.0905 34.6779 22.9061 38.1486 28.017 37.3192C33.1279 36.4897 36.5987 31.6741 35.7692 26.5632C34.9397 21.4524 30.1241 17.9816 25.0133 18.8111ZM14.9476 29.9425C13.9107 23.5539 18.2492 17.5344 24.6378 16.4975C31.0264 15.4607 37.0459 19.7992 38.0827 26.1878C39.1196 32.5764 34.7811 38.5959 28.3925 39.6327C22.0039 40.6695 15.9844 36.3311 14.9476 29.9425Z" fill="#072B45"/>
<path fill-rule="evenodd" clip-rule="evenodd" d="M23.8238 24.8069C24.4885 23.2024 26.3383 22.4364 27.9427 23.1008L28.4786 23.3228C29.0766 23.5704 29.3605 24.2559 29.1129 24.8539C28.8652 25.4518 28.1797 25.7358 27.5818 25.4881L27.0459 25.2662C27.0459 25.2662 27.0459 25.2662 27.0459 25.2662C26.6373 25.097 26.1584 25.2953 25.9891 25.7038M23.8238 24.8069C23.1593 26.4112 23.9256 28.2612 25.5297 28.9259L23.8238 24.8069ZM26.4268 26.7606C26.4268 26.7606 26.4267 26.7606 26.4267 26.7606C26.0183 26.5913 25.82 26.1123 25.9891 25.7038M25.5297 28.9259L26.0657 29.1479L25.5297 28.9259ZM26.9626 26.9825L27.4985 27.2045C29.103 27.8691 29.8689 29.7192 29.2045 31.3234C28.54 32.9281 26.6899 33.694 25.0856 33.0296L24.5497 32.8077C23.9517 32.56 23.6678 31.8745 23.9154 31.2766C24.1631 30.6786 24.8486 30.3946 25.4465 30.6423L25.9824 30.8642C25.9824 30.8642 25.9824 30.8642 25.9824 30.8642C26.3911 31.0335 26.87 30.835 27.0391 30.4266C27.2084 30.0178 27.0099 29.539 26.6016 29.3699C26.6016 29.3699 26.6016 29.3699 26.6016 29.3699L26.0657 29.1479M26.9626 26.9825L26.4268 26.7606L26.9626 26.9825Z" fill="#072B45"/>
<path fill-rule="evenodd" clip-rule="evenodd" d="M26.5143 21.4238C27.1615 21.4238 27.6861 21.9485 27.6861 22.5957V23.7048C27.6861 24.352 27.1615 24.8766 26.5143 24.8766C25.8671 24.8766 25.3424 24.352 25.3424 23.7048V22.5957C25.3424 21.9485 25.8671 21.4238 26.5143 21.4238Z" fill="#072B45"/>
<path fill-rule="evenodd" clip-rule="evenodd" d="M26.5143 31.1542C27.1615 31.1542 27.6861 31.6788 27.6861 32.3261V33.5346C27.6861 34.1818 27.1615 34.7065 26.5143 34.7065C25.8671 34.7065 25.3424 34.1818 25.3424 33.5346V32.3261C25.3424 31.6788 25.8671 31.1542 26.5143 31.1542Z" fill="#072B45"/>
<path fill-rule="evenodd" clip-rule="evenodd" d="M13.2558 14.8071C5.93362 22.1293 5.93362 34.001 13.2558 41.3233C20.5781 48.6455 32.4498 48.6455 39.772 41.3233C47.0942 34.001 47.0942 22.1293 39.772 14.8071C32.4498 7.48489 20.5781 7.48489 13.2558 14.8071ZM11.5986 42.9805C3.36107 34.743 3.36107 21.3874 11.5986 13.1498C19.8361 4.91234 33.1917 4.91234 41.4293 13.1498C49.6668 21.3874 49.6668 34.743 41.4293 42.9805C33.1917 51.218 19.8361 51.218 11.5986 42.9805Z" fill="#072B45"/>
<path fill-rule="evenodd" clip-rule="evenodd" d="M45.8255 8.75401C46.2831 9.21165 46.2831 9.95364 45.8255 10.4113L33.6287 22.6079C33.1711 23.0656 32.4291 23.0656 31.9714 22.6079C31.5138 22.1503 31.5138 21.4083 31.9714 20.9506L44.1682 8.754C44.6258 8.29635 45.3678 8.29636 45.8255 8.75401Z" fill="#072B45"/>
<path fill-rule="evenodd" clip-rule="evenodd" d="M48.6247 0.0153631C48.9969 0.0762075 49.3171 0.31249 49.485 0.650227L50.9607 3.61871L53.9292 5.09431C54.2669 5.2622 54.5032 5.58239 54.5641 5.95463C54.6249 6.32686 54.5029 6.70563 54.2362 6.97233L49.1464 12.0621C48.7904 12.4181 48.2469 12.5069 47.7961 12.2829L44.4751 10.632C44.2464 10.5184 44.0611 10.333 43.9474 10.1043L42.2965 6.78336C42.0724 6.33257 42.1612 5.78902 42.5172 5.43305L47.607 0.343249C47.8737 0.0765508 48.2525 -0.0454811 48.6247 0.0153631ZM44.7703 6.49453L45.8709 8.70852L48.0849 9.80907L51.4264 6.46755L49.565 5.54224C49.3362 5.42855 49.1509 5.24325 49.0372 5.01453L48.1118 3.15301L44.7703 6.49453Z" fill="#072B45"/>
<path fill-rule="evenodd" clip-rule="evenodd" d="M38.5195 43.0199C39.1536 42.8904 39.7726 43.2994 39.9022 43.9335L42.8968 58.5937C42.9672 58.9385 42.879 59.2967 42.6564 59.5693C42.4338 59.8419 42.1005 60.0001 41.7486 60.0001H36.581C36.0242 60.0001 35.5443 59.6083 35.4328 59.0628L32.9836 47.072C32.8541 46.4379 33.2631 45.8188 33.8973 45.6893C34.5314 45.5598 35.1504 45.9689 35.2799 46.603L37.5377 57.6564H40.3132L37.6058 44.4026C37.4763 43.7685 37.8854 43.1494 38.5195 43.0199Z" fill="#072B45"/>
<path fill-rule="evenodd" clip-rule="evenodd" d="M14.5223 42.9551C15.1565 43.0846 15.5655 43.7037 15.436 44.3378L12.7154 57.6563H15.4909L17.762 46.538C17.8915 45.9039 18.5106 45.4949 19.1447 45.6244C19.7788 45.7539 20.1878 46.373 20.0583 47.0071L17.5957 59.0628C17.4843 59.6083 17.0044 60.0001 16.4476 60.0001H11.2799C10.928 60.0001 10.5947 59.8419 10.3722 59.5693C10.1496 59.2967 10.0613 58.9385 10.1318 58.5937L13.1396 43.8687C13.2692 43.2346 13.8882 42.8256 14.5223 42.9551Z" fill="#072B45"/>
<path fill-rule="evenodd" clip-rule="evenodd" d="M10.1073 28.0652C10.1073 27.418 10.6319 26.8933 11.2791 26.8933H11.2799C11.9271 26.8933 12.4518 27.418 12.4518 28.0652C12.4518 28.7124 11.9271 29.237 11.2799 29.237H11.2791C10.6319 29.237 10.1073 28.7124 10.1073 28.0652Z" fill="#072B45"/>
</g>
<defs>
<clipPath id="clip0_13_1484">
<rect width="60" height="60" fill="white"/>
</clipPath>
</defs>
</svg>
