<svg width="1440" height="1010" viewBox="0 0 1440 1010" fill="none" xmlns="http://www.w3.org/2000/svg">
<mask id="mask0_19_1919" style="mask-type:luminance" maskUnits="userSpaceOnUse" x="0" y="14" width="1440" height="996">
<path d="M1440 14H0V1010H1440V14Z" fill="white"/>
</mask>
<g mask="url(#mask0_19_1919)">
<g opacity="0.9">
<g opacity="0.32">
<path d="M1856.64 1194.66L1044.12 725.545C1008.22 704.809 950.212 704.828 914.558 725.545L285.624 1091.04C249.969 1111.75 250.142 1145.35 286.046 1166.09L1098.57 1635.2C1134.47 1655.94 1192.48 1655.92 1228.13 1635.2L1857.07 1269.71C1892.72 1248.99 1892.55 1215.39 1856.64 1194.66Z" fill="#B4E7F6"/>
</g>
<g opacity="0.32">
<path d="M172.211 679.922L-245.428 438.808C-335.034 387.064 -479.821 387.064 -568.852 438.808L-1004.54 691.998C-1093.57 743.742 -1093.09 827.608 -1003.48 879.333L-585.844 1120.45C-496.237 1172.19 -351.45 1172.19 -262.42 1120.45L173.286 867.237C262.316 815.493 261.836 731.627 172.23 679.902" fill="#B4E7F6"/>
</g>
<g opacity="0.32">
<path d="M2216.23 83.9216L1798.59 -157.192C1708.99 -208.936 1564.2 -208.936 1475.17 -157.192L1039.46 96.0176C950.432 147.762 950.912 231.627 1040.52 283.352L1458.16 524.466C1547.76 576.21 1692.55 576.21 1781.58 524.466L2217.29 271.256C2306.32 219.512 2305.84 135.646 2216.23 83.9216Z" fill="#B4E7F6"/>
</g>
<path d="M976.019 344.573L660.574 162.598C592.895 123.556 483.517 123.556 416.273 162.598L87.1938 353.685C19.965 392.727 20.3099 456.033 87.9888 495.06L403.433 677.035C471.112 716.077 580.49 716.077 647.719 677.035L976.799 485.948C1044.04 446.906 1043.68 383.6 976.019 344.558" stroke="#B4E7F6" stroke-width="0.92" stroke-miterlimit="10"/>
<g opacity="0.35">
<path d="M922.183 353.128L644.973 193.07C585.51 158.732 489.388 158.732 430.3 193.07L141.111 361.15C82.0226 395.489 82.3375 451.166 141.816 485.505L419.025 645.562C478.488 679.901 574.61 679.901 633.698 645.562L922.887 477.482C981.975 443.144 981.661 387.452 922.198 353.113" fill="#B4E7F6"/>
</g>
</g>
</g>
</svg>
