<svg width="34" height="34" viewBox="0 0 34 34" fill="none" xmlns="http://www.w3.org/2000/svg">
<g clip-path="url(#clip0_43_103)">
<path d="M33.9209 13.2256L33.9212 13.2255L33.9107 13.1384C33.9105 13.1369 33.9104 13.1357 33.9102 13.1343C33.9101 13.133 33.91 13.1318 33.9097 13.1306L33.8703 12.8029C33.8624 12.7371 33.8533 12.6621 33.843 12.5765L33.8348 12.5084L33.8179 12.5105C33.4032 10.1518 32.2639 7.91343 30.4994 6.00216C28.7432 4.10005 26.4614 2.59823 23.9009 1.65905C21.7071 0.854365 19.3794 0.446289 16.9827 0.446289C13.747 0.446289 10.6045 1.20729 7.89504 2.64696C2.67031 5.42301 -0.411068 10.5256 0.0443631 15.6466C0.280105 18.2965 1.31824 20.8189 3.04663 22.9414C4.67343 24.9391 6.8741 26.5512 9.41062 27.6035C10.9702 28.2504 12.5123 28.5553 14.1451 28.878L14.3362 28.9159C14.7858 29.0049 14.9066 29.1271 14.9378 29.1755C14.9955 29.2654 14.9653 29.4425 14.9422 29.5401C14.9209 29.6301 14.8988 29.7199 14.8768 29.8098C14.7015 30.5247 14.5202 31.264 14.6626 32.0791C14.8264 33.0161 15.4115 33.5535 16.268 33.5537H16.2682C17.1895 33.5537 18.2381 32.9356 18.9319 32.5268L19.0245 32.4723C20.6798 31.5002 22.2392 30.4037 23.4127 29.5571C25.9808 27.7043 28.8915 25.6041 31.0737 22.8873C33.2712 20.1509 34.3064 16.6346 33.9209 13.2256ZM10.5881 18.4099H7.65483C7.21155 18.4099 6.85221 18.0505 6.85221 17.6073V11.4505C6.85221 11.0072 7.21155 10.6478 7.65483 10.6478C8.0981 10.6478 8.45745 11.0072 8.45745 11.4505V16.8046H10.588C11.0312 16.8046 11.3906 17.164 11.3906 17.6073C11.3907 18.0505 11.0313 18.4099 10.5881 18.4099ZM13.648 17.5855C13.648 18.0288 13.2887 18.3881 12.8454 18.3881C12.4021 18.3881 12.0428 18.0288 12.0428 17.5855V11.4287C12.0428 10.9854 12.4021 10.6261 12.8454 10.6261C13.2887 10.6261 13.648 10.9854 13.648 11.4287V17.5855ZM20.903 17.5855C20.903 17.9333 20.6791 18.2415 20.3483 18.3489C20.2667 18.3754 20.1831 18.3882 20.1005 18.3882C19.8484 18.3882 19.6048 18.2691 19.4509 18.0571L16.5606 14.0764V17.5856C16.5606 18.0289 16.2013 18.3882 15.758 18.3882C15.3147 18.3882 14.9554 18.0289 14.9554 17.5856V11.6049C14.9554 11.2572 15.1793 10.9489 15.5101 10.8415C15.841 10.7342 16.2032 10.8518 16.4075 11.1333L19.2978 15.114V11.4287C19.2978 10.9854 19.6571 10.6261 20.1004 10.6261C20.5437 10.6261 20.903 10.9854 20.903 11.4287V17.5855ZM26.7515 18.2618H22.7791C22.3358 18.2618 21.9765 17.9024 21.9765 17.4591V14.3808V11.3023C21.9765 10.8591 22.3358 10.4997 22.7791 10.4997H26.6282C27.0715 10.4997 27.4309 10.8591 27.4309 11.3023C27.4309 11.7456 27.0715 12.105 26.6282 12.105H23.5817V13.5782H26.054C26.4973 13.5782 26.8566 13.9376 26.8566 14.3808C26.8566 14.8241 26.4973 15.1835 26.054 15.1835H23.5817V16.6565H26.7515C27.1948 16.6565 27.5541 17.0159 27.5541 17.4591C27.5541 17.9024 27.1948 18.2618 26.7515 18.2618Z" fill="white"/>
</g>
<defs>
<clipPath id="clip0_43_103">
<rect width="34" height="34" fill="white"/>
</clipPath>
</defs>
</svg>
