<svg width="200" height="39" viewBox="0 0 200 39" fill="none" xmlns="http://www.w3.org/2000/svg">
<g clip-path="url(#clip0_6_3)">
<path d="M9.05237 16.6833V35.85L0 32.5784V13.1624L9.05237 16.6833Z" fill="#072B45"/>
<path d="M23.6558 17.4589V36.8742L18.2888 38.5095L12.9225 36.8742V17.4589L18.2888 19.2194L23.6558 17.4589Z" fill="#F36501"/>
<path d="M27.526 16.6833V35.85L36.5784 32.5784V13.1624L27.526 16.6833Z" fill="#072B45"/>
<path d="M36.5784 0V8.38138L18.3203 15.468L18.2896 15.4806L18.2573 15.468L0 8.38138V0L18.2896 7.09999L36.5784 0Z" fill="#F36501"/>
<path d="M48.2061 15.1722H68.5614V17.256H62.9882V25.6161C62.9882 26.0763 63.2305 26.3673 63.715 26.4397C63.9329 26.4641 64.2484 26.4885 64.6362 26.4885C65.024 26.4885 65.3386 26.4641 65.5809 26.4397C66.041 26.3673 66.3565 26.0039 66.502 25.3738C66.6719 24.7194 66.7443 23.5324 66.7443 21.812L69.6768 23.2177C69.628 25.0836 69.3857 26.4649 68.9743 27.3372C68.5629 28.2096 67.8109 28.6941 66.7451 28.8153C66.3329 28.8397 65.6548 28.864 64.6857 28.864C63.7166 28.864 62.9898 28.8397 62.5776 28.8153C60.8085 28.6698 59.9361 27.8462 59.9361 26.3437V17.2568H56.18V17.5958C56.18 22.9267 53.5874 26.7795 48.4012 29.1787L46.8988 27.4584C51.0427 25.3015 53.1264 22.0063 53.1264 17.5958V17.2568H48.2069V15.173L48.2061 15.1722ZM49.5874 8.29013H67.0109V10.3739H49.5874V8.29013Z" fill="#303030"/>
<path d="M78.3516 19.1698C78.3272 22.8771 77.2126 26.173 75.0077 29.1048L73.3117 27.8446C74.693 25.4698 75.3955 22.5861 75.3955 19.169V14.6861H83.1743C83.1499 14.056 83.1255 13.426 83.1255 12.7715V11.9235H86.0816V12.7715C86.0573 13.426 86.0816 14.056 86.106 14.6861H91.5101C90.8312 14.2495 89.9833 13.8138 88.9654 13.3536L89.9833 12.4089H87.3174V10.6398H81.3077V12.821H78.3516V10.6398H73.6508V8.55602H78.3516V6.56903H81.3077V8.55602H87.3174V6.56903H90.2735V8.55602H95.1198V10.6398H90.2735V12.1422L90.8068 11.6576C91.7516 12.4089 92.5759 13.1845 93.254 13.9357L92.4304 14.6869H94.6117V16.7227H86.2272C86.4207 18.9275 86.8329 20.7934 87.4873 22.3202C89.0141 20.9145 90.2255 19.291 91.171 17.4251L93.7881 18.8064C92.358 21.0113 90.6621 22.9259 88.6995 24.5251C89.4263 25.591 90.1775 26.1243 90.9288 26.1487C91.3889 26.1487 91.7767 25.7852 92.0922 25.0828C92.4076 24.3804 92.6735 23.4836 92.8434 22.3934L95.1694 24.2592C94.806 25.7373 94.2971 26.9251 93.6182 27.7974C92.9158 28.6698 92.1402 29.1055 91.2434 29.1055C89.4019 29.1055 87.7784 28.1121 86.3727 26.1494C84.3133 27.3852 81.9865 28.3543 79.4182 29.0576L78.4735 27.1673C81.0182 26.3917 83.2475 25.3738 85.1613 24.1381C84.1678 22.1511 83.5621 19.6795 83.2955 16.7227H78.3524V19.1698H78.3516Z" fill="#303030"/>
<path d="M105.032 26.6576C105.032 27.4812 104.79 28.0877 104.305 28.4511C103.796 28.8145 103.045 29.008 102.051 29.008C101.3 29.008 100.598 28.9592 99.9434 28.8381L99.4832 26.4877C100.089 26.6088 100.622 26.6576 101.107 26.6576C101.47 26.6576 101.712 26.5852 101.882 26.4397C102.052 26.3186 102.125 26.1486 102.125 25.9308V20.2844C101.301 20.5755 100.477 20.8657 99.6287 21.1568L98.8531 18.3698C99.9678 18.1031 101.058 17.8609 102.125 17.5942V12.5536H99.2653V10.5178H102.125V6.61621H105.033V10.5178H107.48V12.5536H105.033V16.843L107.165 16.2373L107.359 18.1519C106.608 18.4909 105.832 18.8308 105.033 19.1454V26.6576H105.032ZM107.746 16.6495H120.08V18.6365C119.304 20.6966 118.02 22.5381 116.203 24.2096C117.923 25.421 119.813 26.4145 121.897 27.1657L120.758 29.0072C118.286 28.1592 116.081 27.0926 114.167 25.7844C112.204 27.117 109.878 28.1836 107.188 29.0072L106.146 27.1414C108.545 26.2934 110.532 25.2999 112.107 24.1853C110.677 22.9495 109.417 21.5682 108.351 20.017L110.943 18.9511C111.888 20.26 112.93 21.447 114.069 22.5137C115.257 21.2779 116.153 19.969 116.76 18.6365H107.745V16.6495H107.746ZM109.151 7.68365H118.626V12.6511C118.626 13.2324 118.844 13.5235 119.281 13.5479C119.911 13.5479 120.613 13.4991 121.413 13.4023L121.074 15.5828C119.863 15.7527 118.699 15.8251 117.609 15.8007C116.446 15.752 115.864 15.1227 115.864 13.9349V9.71862H111.915V10.4455C111.915 13.2324 110.8 15.2438 108.571 16.4796L107.093 15.147C108.474 14.1048 109.152 12.5544 109.152 10.4462V7.68365H109.151Z" fill="#303030"/>
<path d="M146.47 8.16899V10.0105L144.362 12.143L142.447 11.5617L143.441 10.0105H141.017L140.775 10.6162C142.108 12.3365 144.313 13.621 147.439 14.469L146.47 16.1893L145.234 15.8747V25.6405H140.63C142.738 26.1007 145.041 26.7064 147.561 27.482L146.519 29.2267C143.635 28.5242 140.825 27.9665 138.086 27.5787L139.297 25.6397H133.821L134.984 27.6023C131.907 28.3048 128.974 28.8381 126.212 29.2015L125.339 27.4568C128.077 26.9479 130.598 26.3422 132.851 25.6397H127.835V15.4145H132.197L131.47 14.2031C133.408 13.7429 134.935 13.1373 136.026 12.386C136.85 11.8047 137.456 11.0047 137.868 10.0112H135.735C134.935 10.8592 134.063 11.5861 133.094 12.1925L131.858 10.908C133.142 9.86572 134.208 8.38767 135.081 6.47305L137.892 6.86085C137.65 7.29664 137.407 7.73321 137.141 8.16978H146.47V8.16899ZM125.557 13.8397C127.229 13.1373 129.095 12.0462 131.13 10.5682L132.463 12.8706C130.209 14.1787 128.101 15.0755 126.162 15.5844L125.556 13.8397H125.557ZM126.114 8.02426H131.857V10.06H126.114V8.02426ZM130.839 18.2746H142.229V17.2088H130.839V18.2746ZM130.839 21.0616H142.229V19.9714H130.839V21.0616ZM142.229 22.7576H130.839V23.8478H142.229V22.7576ZM143.659 15.4153C141.89 14.7372 140.412 13.8641 139.273 12.8226C138.836 13.2348 138.376 13.5982 137.867 13.9129C136.68 14.5673 135.395 15.0519 134.062 15.4153H143.658H143.659Z" fill="#303030"/>
<path d="M159.774 25.2283C157.278 26.2218 154.491 27.1185 151.438 27.9177L150.808 25.034C151.874 24.8641 152.916 24.6706 153.959 24.5007V18.0064H151.414V15.9706H153.959V10.2763H151.22V8.24057H159.508V10.2763H156.818V15.9706H159.168V18.0064H156.818V23.943C157.763 23.7251 158.684 23.5308 159.581 23.3129L159.774 25.2275V25.2283ZM172.763 7.78119V18.5641H167.868V21.1568H173.102V23.1925H167.868V26.1974H173.95V28.2812H158.853V26.1974H164.959V23.1925H159.895V21.1568H164.959V18.5641H160.113V7.78119H172.763ZM164.959 12.2397V9.81616H162.876V12.2397H164.959ZM164.959 16.5291V14.2267H162.876V16.5291H164.959ZM167.868 9.81695V12.2405H170V9.81695H167.868ZM167.868 14.2275V16.5299H170V14.2275H167.868Z" fill="#303030"/>
<path d="M182.237 25.0104C181.195 26.5372 180.008 27.9421 178.675 29.2754L176.979 28.3063C177.972 26.9982 178.966 25.447 179.911 23.6535L182.237 25.0104H182.237ZM197.31 12.0942V26.5608C197.31 27.4088 197.043 28.0389 196.534 28.4267C196.001 28.8145 195.105 29.008 193.845 29.008C192.827 29.008 191.882 28.9356 191.01 28.7657L190.55 26.3665C191.446 26.4877 192.246 26.5601 192.924 26.5601C193.481 26.5601 193.846 26.4877 194.039 26.3178C194.233 26.1479 194.33 25.882 194.354 25.4942V17.1584C192.779 19.9454 190.864 22.4649 188.586 24.7674L187.084 23.4592H178.142V8.04785H187.302V23.0722C190.234 19.7763 192.415 16.1177 193.846 12.095H188.054V10.0112H194.354V6.52182H197.31V10.0112H199.999V12.095H197.31V12.0942ZM184.491 10.1316H180.953V12.6763H184.491V10.1316ZM180.953 16.9413H184.491V14.6633H180.953V16.9413ZM184.491 18.9283H180.953V21.3755H184.491V18.9283ZM185.412 23.6535C186.551 25.1559 187.496 26.6584 188.296 28.1364L186.551 29.0576C185.655 27.725 184.491 26.3437 183.086 24.9624L185.412 23.6535Z" fill="#303030"/>
</g>
<defs>
<clipPath id="clip0_6_3">
<rect width="200" height="38.5095" fill="white"/>
</clipPath>
</defs>
</svg>
